# xmcd
#
# Track frame offsets: 
#        150
#        14560
#        37042
#        57922
#        75870
#        93697
#        117667
#        136810
#        159330
#        177425
#        202500
#
# Disc length: 2896 seconds
#
# Revision: 5
# Processed by: cddbd v1.4PL0 Copyright (c) Steve Scherf et al.
# Submitted via: ExactAudioCopy v0.95a3
#
DISCID=880b4e0b
DTITLE=Gray, Macy - On How Life Is
DYEAR=1999
DGENRE=Soul
TTITLE0=Why Didn't You Call Me
TTITLE1=Do Something
TTITLE2=Caligula
TTITLE3=I Try
TTITLE4=Sex-O-Matic Venus Freak
TTITLE5=I Can't Wait To Meetchu
TTITLE6=Still
TTITLE7=I've Committed Murder
TTITLE8=A Moment To Myself
TTITLE9=The Letter
TTITLE10=Rather Hazy
EXTD=This is the Australian Version of the cd it has a bonus track, pr
EXTD=obably why it didnt show up for me..\nsubmitted by spathi@darktid
EXTD=ez.penguinpowered.com ID3G:   0
EXTT0=
EXTT1=
EXTT2=
EXTT3=
EXTT4=
EXTT5=
EXTT6=
EXTT7=
EXTT8=
EXTT9=
EXTT10=this is only on the australian version of the cd!
PLAYORDER=
